<svg xmlns="http://www.w3.org/2000/svg"  viewBox="0 0 64 64" width="64px" height="64px"><path d="M 13 6 C 9.1482075 6 6 9.1482075 6 13 L 6 51 C 6 54.851793 9.1482075 58 13 58 L 51 58 C 54.851793 58 58 54.851793 58 51 L 58 13 C 58 9.1482075 54.851793 6 51 6 L 13 6 z M 13 8 L 51 8 C 53.768207 8 56 10.231793 56 13 L 56 51 C 56 53.768207 53.768207 56 51 56 L 13 56 C 10.231793 56 8 53.768207 8 51 L 8 13 C 8 10.231793 10.231793 8 13 8 z M 33 11 A 1.0001 1.0001 0 0 0 32 12 L 32 13 L 31 13 A 1.0001 1.0001 0 0 0 30 14 L 30 22 L 29 22 A 1.0001 1.0001 0 0 0 28 23 L 28 24 L 27 24 A 1.0001 1.0001 0 0 0 26 25 L 26 26 L 25 26 A 1.0001 1.0001 0 0 0 24 27 L 24 28 L 23 28 L 23 27 A 1.0001 1.0001 0 0 0 22 26 L 21 26 L 21 25 A 1.0001 1.0001 0 0 0 20 24 L 18 24 L 18 23 A 1.0001 1.0001 0 0 0 16.984375 21.986328 A 1.0001 1.0001 0 0 0 16 23 L 16 24.832031 A 1.0001 1.0001 0 0 0 16 25.158203 L 16 31 A 1.0001 1.0001 0 0 0 17 32 L 18 32 L 18 33 A 1.0001 1.0001 0 0 0 19 34 L 20 34 L 20 35 A 1.0001 1.0001 0 0 0 21 36 L 22 36 L 22 37 A 1.0001 1.0001 0 0 0 23 38 L 24 38 L 24 44 A 1.0001 1.0001 0 0 0 25 45 L 27 45 A 1.0001 1.0001 0 1 0 27 43 L 26 43 L 26 41 L 28 41 A 1.0001 1.0001 0 0 0 29 40 L 29 39 L 30 39 L 31 39 L 31 44 A 1.0001 1.0001 0 0 0 32 45 L 34 45 A 1.0001 1.0001 0 1 0 34 43 L 33 43 L 33 38.167969 A 1.0001 1.0001 0 0 0 33 37.841797 L 33 37 L 35 37 A 1.0001 1.0001 0 0 0 36 36 L 36 35 L 37 35 A 1.0001 1.0001 0 0 0 38 34 L 38 28 L 39 28 L 39 29 A 1.0001 1.0001 0 1 0 41 29 L 41 27 A 1.0001 1.0001 0 0 0 40 26 L 38 26 L 38 24 L 39 24 L 44 24 A 1.0001 1.0001 0 1 0 44 22 L 40 22 L 40 21 L 47 21 A 1.0001 1.0001 0 0 0 48 20 L 48 14 A 1.0001 1.0001 0 0 0 47 13 L 46 13 L 46 12 A 1.0001 1.0001 0 0 0 45 11 L 33 11 z M 34 13 L 44 13 L 44 14 A 1.0001 1.0001 0 0 0 45 15 L 46 15 L 46 19 L 39 19 A 1.0001 1.0001 0 0 0 38 20 L 38 22 L 37 22 A 1.0001 1.0001 0 0 0 36 23 L 36 26.832031 A 1.0001 1.0001 0 0 0 36 27.158203 L 36 33 L 35 33 A 1.0001 1.0001 0 0 0 34 34 L 34 35 L 32.154297 35 A 1.0001 1.0001 0 0 0 31.984375 34.986328 A 1.0001 1.0001 0 0 0 31.294922 35.279297 A 1.0001 1.0001 0 0 0 31.275391 35.296875 A 1.0001 1.0001 0 0 0 31.263672 35.308594 A 1.0001 1.0001 0 0 0 31 36.158203 L 31 37 L 30 37 L 28 37 A 1.0001 1.0001 0 0 0 27 38 L 27 39 L 26 39 L 26 37 A 1.0001 1.0001 0 0 0 25 36 L 24 36 L 24 35 A 1.0001 1.0001 0 0 0 23 34 L 22 34 L 22 33 A 1.0001 1.0001 0 0 0 21 32 L 20 32 L 20 31 A 1.0001 1.0001 0 0 0 19 30 L 18 30 L 18 26 L 19 26 L 19 27 A 1.0001 1.0001 0 0 0 20 28 L 21 28 L 21 29 A 1.0001 1.0001 0 0 0 22 30 L 25 30 A 1.0001 1.0001 0 0 0 26 29 L 26 28 L 27 28 A 1.0001 1.0001 0 0 0 28 27 L 28 26 L 29 26 A 1.0001 1.0001 0 0 0 30 25 L 30 24 L 31 24 A 1.0001 1.0001 0 0 0 32 23 L 32 15 L 33 15 A 1.0001 1.0001 0 0 0 34 14 L 34 13 z M 36 15 L 36 17 L 38 17 L 38 15 L 36 15 z M 12 48 C 11.448 48 11 48.448 11 49 L 11 51 C 11 51.552 11.448 52 12 52 C 12.552 52 13 51.552 13 51 L 13 49 C 13 48.448 12.552 48 12 48 z M 17 48 C 16.448 48 16 48.448 16 49 L 16 51 C 16 51.552 16.448 52 17 52 C 17.552 52 18 51.552 18 51 L 18 49 C 18 48.448 17.552 48 17 48 z M 22 48 C 21.448 48 21 48.448 21 49 L 21 51 C 21 51.552 21.448 52 22 52 C 22.552 52 23 51.552 23 51 L 23 49 C 23 48.448 22.552 48 22 48 z M 27 48 C 26.448 48 26 48.448 26 49 L 26 51 C 26 51.552 26.448 52 27 52 C 27.552 52 28 51.552 28 51 L 28 49 C 28 48.448 27.552 48 27 48 z M 32 48 C 31.448 48 31 48.448 31 49 L 31 51 C 31 51.552 31.448 52 32 52 C 32.552 52 33 51.552 33 51 L 33 49 C 33 48.448 32.552 48 32 48 z M 37 48 C 36.448 48 36 48.448 36 49 L 36 51 C 36 51.552 36.448 52 37 52 C 37.552 52 38 51.552 38 51 L 38 49 C 38 48.448 37.552 48 37 48 z M 42 48 C 41.448 48 41 48.448 41 49 L 41 51 C 41 51.552 41.448 52 42 52 C 42.552 52 43 51.552 43 51 L 43 49 C 43 48.448 42.552 48 42 48 z M 47 48 C 46.448 48 46 48.448 46 49 L 46 51 C 46 51.552 46.448 52 47 52 C 47.552 52 48 51.552 48 51 L 48 49 C 48 48.448 47.552 48 47 48 z M 52 48 C 51.448 48 51 48.448 51 49 L 51 51 C 51 51.552 51.448 52 52 52 C 52.552 52 53 51.552 53 51 L 53 49 C 53 48.448 52.552 48 52 48 z"/></svg>